<?xml version="1.0" encoding="UTF-8"?>
<svg width="1304px" height="831px" viewBox="0 0 1304 831" version="1.1" xmlns="http://www.w3.org/2000/svg" xmlns:xlink="http://www.w3.org/1999/xlink">
    <!-- Generator: Sketch 47 (45396) - http://www.bohemiancoding.com/sketch -->
    <title>Artboard</title>
    <desc>Created with Sketch.</desc>
    <defs></defs>
    <g id="Page-1" stroke="none" stroke-width="1" fill="none" fill-rule="evenodd">
        <g id="Artboard">
            <g id="Page-1" transform="translate(139.000000, 108.000000)">
                <polygon id="Fill-1" fill="#000000" points="200.306 113.6 250.537 113.6 250.537 0.5 200.306 0.5"></polygon>
                <polygon id="Stroke-2" stroke="#FFFFFF" points="200.306 113.6 250.536 113.6 250.536 0.5 200.306 0.5"></polygon>
                <polygon id="Fill-4" fill="#000000" points="305.792 95.955 340.495 95.955 340.495 77.257 305.792 77.257"></polygon>
                <polygon id="Stroke-5" stroke="#FFFFFF" points="305.792 95.955 340.495 95.955 340.495 77.257 305.792 77.257"></polygon>
                <polygon id="Fill-6" fill="#000000" points="12.488 306.093 52.057 306.093 52.057 266.525 12.488 266.525"></polygon>
                <polygon id="Stroke-7" stroke="#FFFFFF" points="12.488 306.093 52.057 306.093 52.057 266.525 12.488 266.525"></polygon>
                <polygon id="Fill-8" fill="#000000" points="107.659 409.467 199.996 409.467 199.996 316.755 107.659 316.755"></polygon>
                <polygon id="Stroke-9" stroke="#FFFFFF" points="107.659 409.467 199.996 409.467 199.996 316.755 107.659 316.755"></polygon>
                <polygon id="Fill-10" fill="#000000" points="548.07 463.096 572.443 463.096 572.443 403.052 548.07 403.052"></polygon>
                <polygon id="Stroke-11" stroke="#FFFFFF" points="548.07 463.096 572.443 463.096 572.443 403.052 548.07 403.052"></polygon>
                <polygon id="Fill-12" fill="#000000" points="329.903 350.331 505.696 350.331 505.696 260.949 329.903 260.949"></polygon>
                <polygon id="Stroke-13" stroke="#FFFFFF" points="329.903 350.331 505.696 350.331 505.696 260.949 329.903 260.949"></polygon>
                <polygon id="Fill-14" fill="#000000" points="493.201 240.242 881.351 240.242 881.351 74.064 493.201 74.064"></polygon>
                <polygon id="Stroke-15" stroke="#FFFFFF" points="493.201 240.242 881.351 240.242 881.351 74.064 493.201 74.064"></polygon>
                <polygon id="Fill-16" fill="#000000" points="716.275 374.406 867.288 374.406 867.288 342.779 716.275 342.779"></polygon>
                <polygon id="Stroke-17" stroke="#FFFFFF" points="716.275 374.406 867.288 374.406 867.288 342.779 716.275 342.779"></polygon>
                <polygon id="Fill-18" fill="#000000" points="765.77 481.146 917.13 481.146 917.13 404.249 765.77 404.249"></polygon>
                <polygon id="Stroke-19" stroke="#FFFFFF" points="765.77 481.146 917.13 481.146 917.13 404.249 765.77 404.249"></polygon>
                <polygon id="Fill-20" fill="#000000" points="961.031 547.652 1009.732 547.652 1009.732 488.305 961.031 488.305"></polygon>
                <polygon id="Stroke-21" stroke="#FFFFFF" points="961.031 547.652 1009.732 547.652 1009.732 488.305 961.031 488.305"></polygon>
                <polygon id="Fill-23" fill="#000000" points="894.301 179.629 919.805 179.629 919.805 140.447 894.301 140.447"></polygon>
                <polygon id="Stroke-24" stroke="#FFFFFF" points="894.301 179.629 919.805 179.629 919.805 140.447 894.301 140.447"></polygon>
                <polygon id="Fill-25" fill="#000000" points="0.499 672.167 879.718 672.167 879.718 637.202 0.499 637.202"></polygon>
                <polygon id="Stroke-26" stroke="#FFFFFF" points="0.499 672.166 879.718 672.166 879.718 637.201 0.499 637.201"></polygon>
            </g>
        </g>
    </g>
</svg>