<?xml version="1.0" encoding="UTF-8"?>
<svg width="1304px" height="831px" viewBox="0 0 1304 831" version="1.1" xmlns="http://www.w3.org/2000/svg" xmlns:xlink="http://www.w3.org/1999/xlink">
    <!-- Generator: Sketch 47 (45396) - http://www.bohemiancoding.com/sketch -->
    <title>Artboard</title>
    <desc>Created with Sketch.</desc>
    <defs></defs>
    <g id="Page-1" stroke="none" stroke-width="1" fill="none" fill-rule="evenodd">
        <g id="Artboard">
            <g id="Page-1" transform="translate(10.000000, 8.000000)">
                <polygon id="Fill-1" fill="#000000" points="0.499 205.264 381.623 205.264 381.623 99.221 0.499 99.221"></polygon>
                <polygon id="Stroke-2" stroke="#FFFFFF" points="0.5 205.264 381.624 205.264 381.624 99.221 0.5 99.221"></polygon>
                <polygon id="Fill-4" fill="#000000" points="291.767 67.049 554.082 67.049 554.082 0.5 291.767 0.5"></polygon>
                <polygon id="Stroke-5" stroke="#FFFFFF" points="291.768 67.049 554.083 67.049 554.083 0.5 291.768 0.5"></polygon>
                <polygon id="Fill-7" fill="#000000" points="152.715 295.679 328.044 295.679 328.044 187.404 152.715 187.404"></polygon>
                <polygon id="Stroke-8" stroke="#FFFFFF" points="152.715 295.679 328.044 295.679 328.044 187.404 152.715 187.404"></polygon>
                <polygon id="Fill-9" fill="#000000" points="181.684 321.353 260.823 321.353 260.823 288.982 181.684 288.982"></polygon>
                <polygon id="Stroke-10" stroke="#FFFFFF" points="181.684 321.353 260.823 321.353 260.823 288.982 181.684 288.982"></polygon>
                <polygon id="Fill-11" fill="#000000" points="340.744 634.035 422.925 634.035 422.925 490.162 340.744 490.162"></polygon>
                <polygon id="Stroke-12" stroke="#FFFFFF" points="340.744 634.034 422.925 634.034 422.925 490.161 340.744 490.161"></polygon>
                <polygon id="Fill-14" fill="#000000" points="563.671 258.877 666.362 258.877 666.362 164.591 563.671 164.591"></polygon>
                <polygon id="Stroke-15" stroke="#FFFFFF" points="563.671 258.877 666.362 258.877 666.362 164.591 563.671 164.591"></polygon>
                <polygon id="Fill-16" fill="#000000" points="609.336 171.777 733.672 171.777 733.672 102.044 609.336 102.044"></polygon>
                <polygon id="Stroke-17" stroke="#FFFFFF" points="609.336 171.777 733.672 171.777 733.672 102.044 609.336 102.044"></polygon>
                <polygon id="Fill-18" fill="#000000" points="653.986 247.988 725.654 247.988 725.654 157.265 653.986 157.265"></polygon>
                <polygon id="Stroke-19" stroke="#FFFFFF" points="653.986 247.988 725.654 247.988 725.654 157.265 653.986 157.265"></polygon>
                <polygon id="Fill-20" fill="#000000" points="638.208 535.319 738.503 535.319 738.503 372.172 638.208 372.172"></polygon>
                <polygon id="Stroke-21" stroke="#FFFFFF" points="638.208 535.319 738.503 535.319 738.503 372.172 638.208 372.172"></polygon>
                <polygon id="Fill-22" fill="#000000" points="670.911 456.482 738.503 456.482 738.503 372.172 670.911 372.172"></polygon>
                <polygon id="Stroke-23" stroke="#FFFFFF" points="670.911 456.482 738.503 456.482 738.503 372.172 670.911 372.172"></polygon>
                <polygon id="Fill-24" fill="#000000" points="658.382 416.249 780.55 416.249 780.55 355.002 658.382 355.002"></polygon>
                <polygon id="Stroke-25" stroke="#FFFFFF" points="658.382 416.249 780.55 416.249 780.55 355.002 658.382 355.002"></polygon>
                <polygon id="Fill-26" fill="#000000" points="722.552 343.492 804.196 343.492 804.196 276.383 722.552 276.383"></polygon>
                <polygon id="Stroke-27" stroke="#FFFFFF" points="722.552 343.492 804.196 343.492 804.196 276.383 722.552 276.383"></polygon>
                <polygon id="Fill-28" fill="#000000" points="742.113 183.188 1280.646 183.188 1280.646 96.162 742.113 96.162"></polygon>
                <polygon id="Stroke-29" stroke="#FFFFFF" points="742.113 183.188 1280.646 183.188 1280.646 96.162 742.113 96.162"></polygon>
                <polygon id="Fill-31" fill="#000000" points="953.86 444.969 1045.917 444.969 1045.917 424.313 953.86 424.313"></polygon>
                <polygon id="Stroke-32" stroke="#FFFFFF" points="953.86 444.969 1045.917 444.969 1045.917 424.313 953.86 424.313"></polygon>
                <polygon id="Fill-33" fill="#000000" points="1089.459 306.795 1111.908 306.795 1111.908 227.673 1089.459 227.673"></polygon>
                <polygon id="Stroke-34" stroke="#FFFFFF" points="1089.459 306.795 1111.908 306.795 1111.908 227.673 1089.459 227.673"></polygon>
            </g>
        </g>
    </g>
</svg>