<?xml version="1.0" encoding="UTF-8"?>
<svg width="1304px" height="831px" viewBox="0 0 1304 831" version="1.1" xmlns="http://www.w3.org/2000/svg" xmlns:xlink="http://www.w3.org/1999/xlink">
    <!-- Generator: Sketch 47 (45396) - http://www.bohemiancoding.com/sketch -->
    <title>Artboard</title>
    <desc>Created with Sketch.</desc>
    <defs></defs>
    <g id="Page-1" stroke="none" stroke-width="1" fill="none" fill-rule="evenodd">
        <g id="Artboard">
            <g id="Page-1" transform="translate(111.000000, 165.000000)">
                <polygon id="Fill-1" fill="#000000" points="299.158 103.743 381.886 103.743 381.886 33.628 299.158 33.628"></polygon>
                <polygon id="Stroke-2" stroke="#FFFFFF" points="299.158 103.743 381.886 103.743 381.886 33.628 299.158 33.628"></polygon>
                <polygon id="Fill-3" fill="#000000" points="0.499 96.021 201.502 96.021 201.502 0.5 0.499 0.5"></polygon>
                <polygon id="Stroke-4" stroke="#FFFFFF" points="0.499 96.021 201.502 96.021 201.502 0.5 0.499 0.5"></polygon>
                <polygon id="Fill-6" fill="#000000" points="154.581 232.405 261.74 232.405 261.74 177.71 154.581 177.71"></polygon>
                <polygon id="Stroke-7" stroke="#FFFFFF" points="154.581 232.405 261.74 232.405 261.74 177.71 154.581 177.71"></polygon>
                <polygon id="Fill-8" fill="#000000" points="188.529 487.501 320.04 487.501 320.04 384.858 188.529 384.858"></polygon>
                <polygon id="Stroke-9" stroke="#FFFFFF" points="188.529 487.501 320.04 487.501 320.04 384.858 188.529 384.858"></polygon>
                <polygon id="Fill-10" fill="#000000" points="116.668 349.882 216.014 349.882 216.014 281.791 116.668 281.791"></polygon>
                <polygon id="Stroke-11" stroke="#FFFFFF" points="116.668 349.882 216.014 349.882 216.014 281.791 116.668 281.791"></polygon>
                <polygon id="Fill-12" fill="#000000" points="409.852 307.465 549.768 307.465 549.768 253.347 409.852 253.347"></polygon>
                <polygon id="Stroke-13" stroke="#FFFFFF" points="409.852 307.465 549.768 307.465 549.768 253.347 409.852 253.347"></polygon>
                <polygon id="Fill-14" fill="#000000" points="673.743 369.078 870.592 369.078 870.592 237.961 673.743 237.961"></polygon>
                <polygon id="Stroke-15" stroke="#FFFFFF" points="673.743 369.078 870.592 369.078 870.592 237.961 673.743 237.961"></polygon>
                <polygon id="Fill-16" fill="#000000" points="935.258 559.291 990.631 559.291 990.631 483.574 935.258 483.574"></polygon>
                <polygon id="Stroke-17" stroke="#FFFFFF" points="935.258 559.29 990.631 559.29 990.631 483.573 935.258 483.573"></polygon>
                <polygon id="Fill-19" fill="#000000" points="1030.282 483.574 1065.625 483.574 1065.625 427.095 1030.282 427.095"></polygon>
                <polygon id="Stroke-20" stroke="#FFFFFF" points="1030.282 483.574 1065.625 483.574 1065.625 427.095 1030.282 427.095"></polygon>
                <polygon id="Fill-22" fill="#000000" points="906.088 428.174 994.297 428.174 994.297 402.362 906.088 402.362"></polygon>
                <polygon id="Stroke-23" stroke="#FFFFFF" points="906.088 428.174 994.297 428.174 994.297 402.362 906.088 402.362"></polygon>
                <polygon id="Fill-24" fill="#000000" points="606.68 96.021 954.947 96.021 954.947 19.887 606.68 19.887"></polygon>
                <polygon id="Stroke-25" stroke="#FFFFFF" points="606.68 96.021 954.947 96.021 954.947 19.887 606.68 19.887"></polygon>
                <polygon id="Fill-26" fill="#000000" points="489.762 35.464 566.299 35.464 566.299 0.5 489.762 0.5"></polygon>
                <polygon id="Stroke-27" stroke="#FFFFFF" points="489.762 35.464 566.299 35.464 566.299 0.5 489.762 0.5"></polygon>
                <polygon id="Fill-29" fill="#000000" points="999.092 197.072 1024.596 197.072 1024.596 157.889 999.092 157.889"></polygon>
                <polygon id="Stroke-30" stroke="#FFFFFF" points="999.092 197.072 1024.596 197.072 1024.596 157.889 999.092 157.889"></polygon>
            </g>
        </g>
    </g>
</svg>